<svg xmlns="http://www.w3.org/2000/svg" viewBox="0 0 640 360" width="640" height="360">
  <rect width="640" height="360" fill="#0D1117"/>
  <g stroke="rgba(251,191,36,0.07)" stroke-width="1">
    <line x1="0" y1="72" x2="640" y2="72"/><line x1="0" y1="144" x2="640" y2="144"/>
    <line x1="0" y1="216" x2="640" y2="216"/><line x1="0" y1="288" x2="640" y2="288"/>
    <line x1="128" y1="0" x2="128" y2="360"/><line x1="256" y1="0" x2="256" y2="360"/>
    <line x1="384" y1="0" x2="384" y2="360"/><line x1="512" y1="0" x2="512" y2="360"/>
  </g>
  <!-- braces icon scaled to 72px, centred -->
  <g transform="translate(320,175) scale(3)" fill="none" stroke="#FBBF24" stroke-width="2" stroke-linecap="round" stroke-linejoin="round">
    <path d="M8 3H7a2 2 0 0 0-2 2v5a2 2 0 0 1-2 2 2 2 0 0 1 2 2v5c0 1.1.9 2 2 2h1" transform="translate(-12,-12)"/>
    <path d="M16 21h1a2 2 0 0 0 2-2v-5c0-1.1.9-2 2-2a2 2 0 0 1-2-2V5a2 2 0 0 0-2-2h-1" transform="translate(-12,-12)"/>
  </g>
  <text x="320" y="270" text-anchor="middle" font-family="JetBrains Mono,monospace" font-size="13" fill="#FBBF24" opacity="0.45">const news = fetch()</text>
</svg>
