<svg xmlns="http://www.w3.org/2000/svg" viewBox="0 0 640 360" width="640" height="360">
  <rect width="640" height="360" fill="#0D1117"/>
  <g stroke="rgba(249,115,22,0.07)" stroke-width="1">
    <line x1="0" y1="72" x2="640" y2="72"/><line x1="0" y1="144" x2="640" y2="144"/>
    <line x1="0" y1="216" x2="640" y2="216"/><line x1="0" y1="288" x2="640" y2="288"/>
    <line x1="128" y1="0" x2="128" y2="360"/><line x1="256" y1="0" x2="256" y2="360"/>
    <line x1="384" y1="0" x2="384" y2="360"/><line x1="512" y1="0" x2="512" y2="360"/>
  </g>
  <!-- coffee icon scaled to 72px, centred -->
  <g transform="translate(320,175) scale(3)" fill="none" stroke="#F97316" stroke-width="2" stroke-linecap="round" stroke-linejoin="round">
    <path d="M17 8h1a4 4 0 1 1 0 8h-1" transform="translate(-12,-12)"/>
    <path d="M3 8h14v9a4 4 0 0 1-4 4H7a4 4 0 0 1-4-4Z" transform="translate(-12,-12)"/>
    <line x1="6" x2="6" y1="2" y2="4" transform="translate(-12,-12)"/>
    <line x1="10" x2="10" y1="2" y2="4" transform="translate(-12,-12)"/>
    <line x1="14" x2="14" y1="2" y2="4" transform="translate(-12,-12)"/>
  </g>
  <text x="320" y="270" text-anchor="middle" font-family="JetBrains Mono,monospace" font-size="13" fill="#F97316" opacity="0.45">new News()</text>
</svg>
