<svg xmlns="http://www.w3.org/2000/svg" viewBox="0 0 640 360" width="640" height="360">
  <rect width="640" height="360" fill="#0D1117"/>
  <g stroke="rgba(59,130,246,0.07)" stroke-width="1">
    <line x1="0" y1="72" x2="640" y2="72"/><line x1="0" y1="144" x2="640" y2="144"/>
    <line x1="0" y1="216" x2="640" y2="216"/><line x1="0" y1="288" x2="640" y2="288"/>
    <line x1="128" y1="0" x2="128" y2="360"/><line x1="256" y1="0" x2="256" y2="360"/>
    <line x1="384" y1="0" x2="384" y2="360"/><line x1="512" y1="0" x2="512" y2="360"/>
  </g>
  <!-- Python logo (exact path from CAT_SVG) scaled to ~64px, centred -->
  <g transform="translate(288,144) scale(2.667)" fill="#3B82F6">
    <path d="M11.914 0C5.82 0 6.2 2.656 6.2 2.656l.007 2.752h5.814v.826H3.9S0 5.789 0 11.969C0 18.15 3.403 17.93 3.403 17.93h2.034v-2.853s-.11-3.403 3.347-3.403h5.768s3.24.052 3.24-3.13V3.26S18.302 0 11.914 0zm-3.22 1.874a1.04 1.04 0 0 1 1.04 1.04 1.04 1.04 0 0 1-1.04 1.04 1.04 1.04 0 0 1-1.04-1.04 1.04 1.04 0 0 1 1.04-1.04z"/>
    <path d="M12.086 24c6.094 0 5.714-2.656 5.714-2.656l-.007-2.752h-5.814v-.826h8.121S24 18.211 24 12.031c0-6.18-3.403-5.961-3.403-5.961h-2.034v2.853s.11 3.403-3.347 3.403H9.448s-3.24-.052-3.24 3.13V18.74S5.698 24 12.086 24zm3.22-1.874a1.04 1.04 0 0 1-1.04-1.04 1.04 1.04 0 0 1 1.04-1.04 1.04 1.04 0 0 1 1.04 1.04 1.04 1.04 0 0 1-1.04 1.04z"/>
  </g>
  <text x="320" y="270" text-anchor="middle" font-family="JetBrains Mono,monospace" font-size="13" fill="#3B82F6" opacity="0.45">import news</text>
</svg>
